<svg width="20" height="20" viewBox="0 0 20 20" fill="none" xmlns="http://www.w3.org/2000/svg">
<path fill-rule="evenodd" clip-rule="evenodd" d="M13.6667 0.833374C16.7042 0.833374 19.1667 3.29581 19.1667 6.33337V13.6667C19.1667 16.7043 16.7042 19.1667 13.6667 19.1667H6.33334C3.29578 19.1667 0.833344 16.7043 0.833344 13.6667V6.33337C0.833344 3.29581 3.29578 0.833374 6.33334 0.833374H13.6667ZM12.75 3.58337H7.25001C5.28633 3.58337 3.68319 5.12701 3.58783 7.06704L3.58334 7.25004V12.75C3.58334 14.7137 5.12698 16.3169 7.06701 16.4122L7.25001 16.4167H12.75C14.7137 16.4167 16.3168 14.8731 16.4122 12.933L16.4167 12.75V7.25004C16.4167 5.28636 14.873 3.68322 12.933 3.58786L12.75 3.58337Z" fill="#969696"/>
</svg>
